#Comment line ignore any data following # character 
#Hierarchical Translation and Rotation (.htr) file 
[Header]	
#Header keywords are followed by a single value 
FileType HTR		#Single word string
DataType HTRS		#Translation followed by rotation and scale data
FileVersion 1		#integer
NumSegments 84		#integer
NumFrames 2		#integer
DataFrameRate 30		#integer, data frame rate in this file
EulerRotationOrder ZYX
CalibrationUnits mm
RotationUnits Degrees
GlobalAxisofGravity Y
BoneLengthAxis Y
ScaleFactor 1.00
[SegmentNames&Hierarchy]
#CHILD	PARENT
MASTER GLOBAL
root MASTER
chest root
L_mid_tent01 root
R_mid_tent01 root
spine01 root
Bip01_Neck chest
L_humerus chest
R_humerus chest
weapon_bone chest
Bip01_Head Bip01_Neck
eye_left_bone Bip01_Head
eye_right_bone Bip01_Head
L_forearm L_humerus
L_front_hand L_forearm
L_weapon_bone L_forearm
L_front_hand01_01 L_front_hand
L_front_hand02_01 L_front_hand
L_front_hand03_01 L_front_hand
L_front_hand01_02 L_front_hand01_01
L_front_hand02_02 L_front_hand02_01
L_front_hand03_02 L_front_hand03_01
R_forearm R_humerus
R_front_hand R_forearm
R_weapon_bone R_forearm
R_front_hand01_01 R_front_hand
R_front_hand02_01 R_front_hand
R_front_hand03_01 R_front_hand
R_front_hand01_02 R_front_hand01_01
R_front_hand02_02 R_front_hand02_01
R_front_hand03_02 R_front_hand03_01
null_rope01_connect L_mid_tent01
Rope1_Seg01 null_rope01_connect
Rope1_Seg02 Rope1_Seg01
Rope1_Seg03 Rope1_Seg02
Rope1_Seg04 Rope1_Seg03
Rope1_Seg05 Rope1_Seg04
Rope1_Seg06 Rope1_Seg05
Rope1_Seg07 Rope1_Seg06
Rope1_Seg09 Rope1_Seg07
L_mid_hand01 Rope1_Seg09
L_mid_hand02 Rope1_Seg09
L_mid_hand03 Rope1_Seg09
null_rope02_connect R_mid_tent01
Rope2_Seg01 null_rope02_connect
Rope2_Seg02 Rope2_Seg01
Rope2_Seg03 Rope2_Seg02
Rope2_Seg04 Rope2_Seg03
Rope2_Seg05 Rope2_Seg04
Rope2_Seg06 Rope2_Seg05
Rope2_Seg07 Rope2_Seg06
Rope2_Seg09 Rope2_Seg07
R_mid_hand01 Rope2_Seg09
R_mid_hand02 Rope2_Seg09
R_mid_hand03 Rope2_Seg09
spine02 spine01
spine03 spine02
pelvis spine03
null_rope03_connect pelvis
null_rope04_connect pelvis
Rope3_Seg01 null_rope03_connect
Rope3_Seg02 Rope3_Seg01
Rope3_Seg03 Rope3_Seg02
Rope3_Seg04 Rope3_Seg03
Rope3_Seg05 Rope3_Seg04
Rope3_Seg06 Rope3_Seg05
Rope3_Seg07 Rope3_Seg06
Rope3_Seg08 Rope3_Seg07
Rope3_Seg09 Rope3_Seg08
R_rear_hand01 Rope3_Seg09
R_rear_hand02 Rope3_Seg09
R_rear_hand03 Rope3_Seg09
Rope4_Seg01 null_rope04_connect
Rope4_Seg02 Rope4_Seg01
Rope4_Seg03 Rope4_Seg02
Rope4_Seg04 Rope4_Seg03
Rope4_Seg05 Rope4_Seg04
Rope4_Seg06 Rope4_Seg05
Rope4_Seg07 Rope4_Seg06
Rope4_Seg08 Rope4_Seg07
Rope4_Seg09 Rope4_Seg08
L_rear_hand01 Rope4_Seg09
L_rear_hand02 Rope4_Seg09
L_rear_hand03 Rope4_Seg09
[BasePosition]
#SegmentName Tx, Ty, Tz, Rx, Ry, Rz, BoneLength
MASTER 0.000000 0.000000 0.000000 -90.000000 0.000000 0.000000 10.000000 
root 0.000000 0.000000 0.000000 0.000000 0.000000 0.000000 10.000000 
chest 0.000000 0.000000 0.000000 0.000000 0.000000 0.000000 10.000000 
L_mid_tent01 0.000000 0.000000 0.000000 0.000000 0.000000 0.000000 10.000000 
R_mid_tent01 0.000000 0.000000 0.000000 0.000000 0.000000 0.000000 10.000000 
spine01 0.000000 0.000000 0.000000 0.000000 0.000000 0.000000 10.000000 
Bip01_Neck 0.000000 0.000000 0.000000 0.000000 0.000000 0.000000 10.000000 
L_humerus 0.000000 0.000000 0.000000 0.000000 0.000000 0.000000 10.000000 
R_humerus 0.000000 0.000000 0.000000 0.000000 0.000000 0.000000 10.000000 
weapon_bone 0.000000 0.000000 0.000000 0.000000 0.000000 0.000000 10.000000 
Bip01_Head 0.000000 0.000000 0.000000 0.000000 0.000000 0.000000 10.000000 
eye_left_bone 0.000000 0.000000 0.000000 0.000000 0.000000 0.000000 10.000000 
eye_right_bone 0.000000 0.000000 0.000000 0.000000 0.000000 0.000000 10.000000 
L_forearm 0.000000 0.000000 0.000000 0.000000 0.000000 0.000000 10.000000 
L_front_hand 0.000000 0.000000 0.000000 0.000000 0.000000 0.000000 10.000000 
L_weapon_bone 0.000000 0.000000 0.000000 0.000000 0.000000 0.000000 10.000000 
L_front_hand01_01 0.000000 0.000000 0.000000 0.000000 0.000000 0.000000 10.000000 
L_front_hand02_01 0.000000 0.000000 0.000000 0.000000 0.000000 0.000000 10.000000 
L_front_hand03_01 0.000000 0.000000 0.000000 0.000000 0.000000 0.000000 10.000000 
L_front_hand01_02 0.000000 0.000000 0.000000 0.000000 0.000000 0.000000 10.000000 
L_front_hand02_02 0.000000 0.000000 0.000000 0.000000 0.000000 0.000000 10.000000 
L_front_hand03_02 0.000000 0.000000 0.000000 0.000000 0.000000 0.000000 10.000000 
R_forearm 0.000000 0.000000 0.000000 0.000000 0.000000 0.000000 10.000000 
R_front_hand 0.000000 0.000000 0.000000 0.000000 0.000000 0.000000 10.000000 
R_weapon_bone 0.000000 0.000000 0.000000 0.000000 0.000000 0.000000 10.000000 
R_front_hand01_01 0.000000 0.000000 0.000000 0.000000 0.000000 0.000000 10.000000 
R_front_hand02_01 0.000000 0.000000 0.000000 0.000000 0.000000 0.000000 10.000000 
R_front_hand03_01 0.000000 0.000000 0.000000 0.000000 0.000000 0.000000 10.000000 
R_front_hand01_02 0.000000 0.000000 0.000000 0.000000 0.000000 0.000000 10.000000 
R_front_hand02_02 0.000000 0.000000 0.000000 0.000000 0.000000 0.000000 10.000000 
R_front_hand03_02 0.000000 0.000000 0.000000 0.000000 0.000000 0.000000 10.000000 
null_rope01_connect 0.000000 0.000000 0.000000 0.000000 0.000000 0.000000 10.000000 
Rope1_Seg01 0.000000 0.000000 0.000000 0.000000 0.000000 0.000000 10.000000 
Rope1_Seg02 0.000000 0.000000 0.000000 0.000000 0.000000 0.000000 10.000000 
Rope1_Seg03 0.000000 0.000000 0.000000 0.000000 0.000000 0.000000 10.000000 
Rope1_Seg04 0.000000 0.000000 0.000000 0.000000 0.000000 0.000000 10.000000 
Rope1_Seg05 0.000000 0.000000 0.000000 0.000000 0.000000 0.000000 10.000000 
Rope1_Seg06 0.000000 0.000000 0.000000 0.000000 0.000000 0.000000 10.000000 
Rope1_Seg07 0.000000 0.000000 0.000000 0.000000 0.000000 0.000000 10.000000 
Rope1_Seg09 0.000000 0.000000 0.000000 0.000000 0.000000 0.000000 10.000000 
L_mid_hand01 0.000000 0.000000 0.000000 0.000000 0.000000 0.000000 10.000000 
L_mid_hand02 0.000000 0.000000 0.000000 0.000000 0.000000 0.000000 10.000000 
L_mid_hand03 0.000000 0.000000 0.000000 0.000000 0.000000 0.000000 10.000000 
null_rope02_connect 0.000000 0.000000 0.000000 0.000000 0.000000 0.000000 10.000000 
Rope2_Seg01 0.000000 0.000000 0.000000 0.000000 0.000000 0.000000 10.000000 
Rope2_Seg02 0.000000 0.000000 0.000000 0.000000 0.000000 0.000000 10.000000 
Rope2_Seg03 0.000000 0.000000 0.000000 0.000000 0.000000 0.000000 10.000000 
Rope2_Seg04 0.000000 0.000000 0.000000 0.000000 0.000000 0.000000 10.000000 
Rope2_Seg05 0.000000 0.000000 0.000000 0.000000 0.000000 0.000000 10.000000 
Rope2_Seg06 0.000000 0.000000 0.000000 0.000000 0.000000 0.000000 10.000000 
Rope2_Seg07 0.000000 0.000000 0.000000 0.000000 0.000000 0.000000 10.000000 
Rope2_Seg09 0.000000 0.000000 0.000000 0.000000 0.000000 0.000000 10.000000 
R_mid_hand01 0.000000 0.000000 0.000000 0.000000 0.000000 0.000000 10.000000 
R_mid_hand02 0.000000 0.000000 0.000000 0.000000 0.000000 0.000000 10.000000 
R_mid_hand03 0.000000 0.000000 0.000000 0.000000 0.000000 0.000000 10.000000 
spine02 0.000000 0.000000 0.000000 0.000000 0.000000 0.000000 10.000000 
spine03 0.000000 0.000000 0.000000 0.000000 0.000000 0.000000 10.000000 
pelvis 0.000000 0.000000 0.000000 0.000000 0.000000 0.000000 10.000000 
null_rope03_connect 0.000000 0.000000 0.000000 0.000000 0.000000 0.000000 10.000000 
null_rope04_connect 0.000000 0.000000 0.000000 0.000000 0.000000 0.000000 10.000000 
Rope3_Seg01 0.000000 0.000000 0.000000 0.000000 0.000000 0.000000 10.000000 
Rope3_Seg02 0.000000 0.000000 0.000000 0.000000 0.000000 0.000000 10.000000 
Rope3_Seg03 0.000000 0.000000 0.000000 0.000000 0.000000 0.000000 10.000000 
Rope3_Seg04 0.000000 0.000000 0.000000 0.000000 0.000000 0.000000 10.000000 
Rope3_Seg05 0.000000 0.000000 0.000000 0.000000 0.000000 0.000000 10.000000 
Rope3_Seg06 0.000000 0.000000 0.000000 0.000000 0.000000 0.000000 10.000000 
Rope3_Seg07 0.000000 0.000000 0.000000 0.000000 0.000000 0.000000 10.000000 
Rope3_Seg08 0.000000 0.000000 0.000000 0.000000 0.000000 0.000000 10.000000 
Rope3_Seg09 0.000000 0.000000 0.000000 0.000000 0.000000 0.000000 10.000000 
R_rear_hand01 0.000000 0.000000 0.000000 0.000000 0.000000 0.000000 10.000000 
R_rear_hand02 0.000000 0.000000 0.000000 0.000000 0.000000 0.000000 10.000000 
R_rear_hand03 0.000000 0.000000 0.000000 0.000000 0.000000 0.000000 10.000000 
Rope4_Seg01 0.000000 0.000000 0.000000 0.000000 0.000000 0.000000 10.000000 
Rope4_Seg02 0.000000 0.000000 0.000000 0.000000 0.000000 0.000000 10.000000 
Rope4_Seg03 0.000000 0.000000 0.000000 0.000000 0.000000 0.000000 10.000000 
Rope4_Seg04 0.000000 0.000000 0.000000 0.000000 0.000000 0.000000 10.000000 
Rope4_Seg05 0.000000 0.000000 0.000000 0.000000 0.000000 0.000000 10.000000 
Rope4_Seg06 0.000000 0.000000 0.000000 0.000000 0.000000 0.000000 10.000000 
Rope4_Seg07 0.000000 0.000000 0.000000 0.000000 0.000000 0.000000 10.000000 
Rope4_Seg08 0.000000 0.000000 0.000000 0.000000 0.000000 0.000000 10.000000 
Rope4_Seg09 0.000000 0.000000 0.000000 0.000000 0.000000 0.000000 10.000000 
L_rear_hand01 0.000000 0.000000 0.000000 0.000000 0.000000 0.000000 10.000000 
L_rear_hand02 0.000000 0.000000 0.000000 0.000000 0.000000 0.000000 10.000000 
L_rear_hand03 0.000000 0.000000 0.000000 0.000000 0.000000 0.000000 10.000000 
#Beginning of Data. Separated by tabs
#Fr	Tx	Ty	Tz	Rx	Ry	Rz	SF
[MASTER]
20 -0.000833 4263.187012 190.102386 0.001660 0.001660 0.001660 4267.423340
21 -0.000877 4473.610352 126.131119 0.001660 0.001660 0.001660 4475.388184
[root]
20 -25.738703 -61.615906 1501.940063 -96.065544 -18.264660 -91.760124 1503.423706
21 -22.927671 -62.173153 1501.667114 -96.372307 -19.985971 -91.566887 1503.128540
[chest]
20 -84.512650 -34.090519 0.000000 -1.888936 0.936515 -178.305527 91.129311
21 -84.512650 -34.090519 0.000000 -1.888050 0.943089 -178.206696 91.129311
[L_mid_tent01]
20 27.299150 22.179228 -249.918716 -17.154263 9.756756 14.045143 252.381714
21 27.299152 22.179232 -249.918716 -18.025925 10.330851 13.793223 252.381714
[R_mid_tent01]
20 23.228794 24.509907 226.238495 -171.024475 -14.347162 24.491663 228.744751
21 23.228794 24.509907 226.238495 -169.452866 -15.334118 24.413105 228.744751
[spine01]
20 -0.361383 -0.195265 0.000000 0.002015 0.001205 28.249844 0.410763
21 -0.361383 -0.195265 0.000000 0.002008 0.001215 27.655445 0.410763
[Bip01_Neck]
20 165.484543 71.581718 0.000119 176.643677 -1.657967 43.431911 180.302734
21 165.484543 71.581718 0.000119 176.643677 -1.657967 43.431911 180.302734
[L_humerus]
20 -13.983130 -135.272980 -120.471481 -6.476205 65.943596 83.451416 181.680161
21 -13.983130 -135.272980 -120.471481 -6.363012 66.321175 83.580513 181.680161
[R_humerus]
20 -13.983309 -135.273102 125.287651 26.451721 -66.832870 69.238007 184.909012
21 -13.983309 -135.273102 125.287651 26.615101 -67.228951 69.068840 184.909012
[weapon_bone]
20 235.964890 -300.705902 0.000000 0.000000 -89.951546 -128.212341 382.234833
21 235.964890 -300.705902 0.000000 0.000000 -89.951546 -128.212341 382.234833
[Bip01_Head]
20 213.326981 186.042343 7.559204 5.200446 6.151311 -43.834991 283.155945
21 213.326920 186.042358 7.559204 5.200446 6.151311 -43.834991 283.155914
[eye_left_bone]
20 -24.626970 125.451866 -64.772606 0.000000 -90.000000 -99.840431 143.318359
21 -24.626970 125.451866 -64.772606 0.000000 -90.000000 -99.840431 143.318359
[eye_right_bone]
20 -24.626970 125.451866 64.327362 0.000000 -89.965736 80.156380 143.117676
21 -24.626970 125.451866 64.327362 0.000000 -89.965736 80.156380 143.117676
[L_forearm]
20 322.776093 0.000000 -0.000119 0.000416 -0.002310 -110.410263 322.776093
21 322.776093 0.000000 -0.000119 0.000413 -0.002311 -110.283691 322.776093
[L_front_hand]
20 241.149185 -0.042021 -3.300071 -178.667953 -1.835447 -27.422342 241.171753
21 241.149185 -0.042021 -3.300071 -178.667953 -1.835447 -27.422350 241.171753
[L_weapon_bone]
20 156.183838 0.000000 0.000000 0.000014 0.000007 0.000001 156.183838
21 156.183838 0.000000 0.000000 0.000014 0.000007 0.000001 156.183838
[L_front_hand01_01]
20 86.095154 20.947098 -0.655860 -0.299135 -0.518030 67.911942 88.609184
21 86.095154 20.947098 -0.655860 -0.306535 -0.513312 68.646957 88.609184
[L_front_hand02_01]
20 86.935165 -11.437475 24.513514 144.114838 -56.047676 -49.250378 91.046425
21 86.935165 -11.437475 24.513514 145.004044 -56.473930 -50.323578 91.046425
[L_front_hand03_01]
20 86.637497 -14.123976 -20.424902 -144.319244 54.262909 -51.171417 90.126129
21 86.637497 -14.123976 -20.424902 -145.151382 54.687630 -52.198425 90.126129
[L_front_hand01_02]
20 71.020905 -0.000179 0.000030 0.000317 -0.002326 -105.501534 71.020905
21 71.020905 -0.000179 0.000030 0.000317 -0.002326 -105.540344 71.020905
[L_front_hand02_02]
20 71.020927 -0.000119 0.000060 0.000317 -0.002326 -105.501534 71.020927
21 71.020927 -0.000119 0.000060 0.000317 -0.002326 -105.540344 71.020927
[L_front_hand03_02]
20 71.020905 -0.000060 0.000060 0.000317 -0.002326 -105.501534 71.020905
21 71.020905 -0.000060 0.000060 0.000317 -0.002326 -105.540344 71.020905
[R_forearm]
20 322.776428 -0.000060 0.000030 0.201524 0.066928 -109.067703 322.776428
21 322.776428 -0.000060 0.000030 0.201599 0.066703 -108.940025 322.776428
[R_front_hand]
20 238.847015 -0.006795 2.210259 -2.635298 -10.645461 -26.312506 238.857239
21 238.847015 -0.006795 2.210259 -2.635298 -10.645461 -26.312506 238.857239
[R_weapon_bone]
20 155.664093 0.002503 -0.000030 0.003487 0.001180 -90.988930 155.664078
21 155.664093 0.002503 -0.000030 0.003487 0.001180 -90.988930 155.664078
[R_front_hand01_01]
20 87.624611 14.231146 22.918642 -142.976746 -55.478233 47.985172 91.683487
21 87.624611 14.231146 22.918642 -144.694336 -56.325737 50.060089 91.683487
[R_front_hand02_01]
20 89.356956 14.367283 -19.491137 143.617325 53.874443 50.539886 92.579636
21 89.356956 14.367283 -19.491137 145.240677 54.711182 52.540722 92.579636
[R_front_hand03_01]
20 87.286232 -22.307278 -0.143439 0.095752 -0.445027 -67.192543 90.091743
21 87.286232 -22.307278 -0.143439 0.105409 -0.441003 -68.629555 90.091743
[R_front_hand01_02]
20 71.020905 0.000060 0.000119 0.002323 -0.000334 106.381714 71.020905
21 71.020905 0.000060 0.000119 0.002323 -0.000334 106.381714 71.020905
[R_front_hand02_02]
20 71.020844 -0.000030 -0.000119 0.002323 -0.000334 106.381714 71.020836
21 71.020844 -0.000030 -0.000119 0.002323 -0.000334 106.381714 71.020836
[R_front_hand03_02]
20 71.020905 0.000000 0.000030 0.002323 -0.000334 106.381714 71.020905
21 71.020905 0.000000 0.000030 0.002323 -0.000334 106.381714 71.020905
[null_rope01_connect]
20 328.732483 0.000000 -0.000238 -147.225464 -63.523273 -120.111244 328.732483
21 328.732483 0.000000 -0.000238 -145.759888 -62.262337 -119.697548 328.732483
[Rope1_Seg01]
20 -0.000024 0.000014 0.000097 48.430031 4.534685 -120.137169 0.000101
21 -0.000025 0.000013 0.000102 45.509277 2.312737 -118.929962 0.000106
[Rope1_Seg02]
20 139.999863 -0.000179 0.000000 -4.229173 0.596132 1.756459 139.999863
21 139.999863 -0.000179 0.000000 -3.822108 0.296604 2.164265 139.999863
[Rope1_Seg03]
20 139.999924 0.000060 -0.000060 -0.788464 -0.981679 1.581289 139.999924
21 139.999924 0.000060 -0.000060 -0.652153 -1.426142 2.052646 139.999924
[Rope1_Seg04]
20 139.999924 -0.000060 -0.000119 0.207394 -1.727869 1.774313 139.999924
21 139.999924 -0.000060 -0.000119 -0.759002 -1.600173 2.391589 139.999924
[Rope1_Seg05]
20 139.999832 0.000119 -0.000060 -24.809465 10.740784 3.666416 139.999832
21 139.999832 0.000119 -0.000060 -19.100370 9.987338 2.959639 139.999832
[Rope1_Seg06]
20 139.999954 0.000119 -0.000060 -15.011460 4.987243 4.373810 139.999954
21 139.999954 0.000119 -0.000060 -12.200694 5.042819 3.251790 139.999954
[Rope1_Seg07]
20 139.999985 0.000060 0.000000 -5.709763 1.423366 2.387162 139.999985
21 139.999985 0.000060 0.000000 -5.170588 1.698545 1.940235 139.999985
[Rope1_Seg09]
20 121.602913 0.000119 -0.000089 -89.793175 -1.359789 0.847147 121.602913
21 121.602913 0.000119 -0.000089 -89.793175 -1.359789 0.847147 121.602913
[L_mid_hand01]
20 103.859421 1.038730 8.195221 130.544373 -67.584534 -38.866943 104.187431
21 103.859421 1.038730 8.195221 130.544373 -67.584534 -38.866943 104.187431
[L_mid_hand02]
20 105.572853 -4.139662 -10.864139 -168.923172 43.409309 -73.498886 106.211075
21 105.572853 -4.139662 -10.864139 -168.923172 43.409309 -73.498886 106.211075
[L_mid_hand03]
20 104.641464 17.579376 -3.913581 -6.012627 17.808178 74.893677 106.179977
21 104.641464 17.579376 -3.913581 -6.012627 17.808174 74.893669 106.179977
[null_rope02_connect]
20 328.732849 0.000179 -0.000119 -117.177589 79.366470 -19.408276 328.732849
21 328.732849 0.000179 -0.000119 -119.291580 77.965576 -23.000961 328.732849
[Rope2_Seg01]
20 0.000062 0.000056 0.000000 50.636955 4.813842 -49.889336 0.000084
21 0.000064 0.000051 0.000000 61.951122 4.484056 -54.328663 0.000081
[Rope2_Seg02]
20 139.999741 -0.000060 -0.000119 24.359409 -10.700136 -6.654108 139.999756
21 139.999741 -0.000060 -0.000119 11.845239 -9.651645 -1.930024 139.999756
[Rope2_Seg03]
20 140.000107 0.000030 0.000000 9.371474 -13.653825 -1.082747 140.000107
21 140.000107 0.000030 0.000000 2.909050 -7.821221 1.349962 140.000107
[Rope2_Seg04]
20 139.999802 0.000000 -0.000060 3.859269 -12.530217 1.081277 139.999802
21 139.999802 0.000000 -0.000060 2.433348 -6.751422 0.774866 139.999802
[Rope2_Seg05]
20 139.999985 -0.000060 0.000119 3.125651 -0.825683 -3.603556 139.999985
21 139.999985 -0.000060 0.000119 6.591317 -5.997594 -4.164421 139.999985
[Rope2_Seg06]
20 139.999893 -0.000030 -0.000119 2.233880 1.628038 -3.459801 139.999893
21 139.999893 -0.000030 -0.000119 4.144896 -4.098393 -3.009309 139.999893
[Rope2_Seg07]
20 139.999893 0.000060 -0.000060 1.257156 -0.359871 -1.313004 139.999893
21 139.999893 0.000060 -0.000060 1.677185 -2.525645 -1.049548 139.999893
[Rope2_Seg09]
20 121.338966 0.000089 -0.000060 33.793236 -1.359788 -0.847141 121.338966
21 121.338966 0.000089 -0.000060 33.793236 -1.359788 -0.847141 121.338966
[R_mid_hand01]
20 104.680779 11.144459 -10.335981 -17.390701 44.882233 68.793839 105.778534
21 104.680779 11.144459 -10.335981 -16.212061 45.237240 70.462852 105.778534
[R_mid_hand02]
20 104.070427 2.443552 8.231699 50.967751 -66.804413 37.227455 104.424065
21 104.070427 2.443552 8.231699 49.067371 -67.749794 39.286461 104.424065
[R_mid_hand03]
20 106.028137 -11.221827 -5.996406 -176.756866 15.486362 -75.308266 106.788818
21 106.028137 -11.221827 -5.996406 -177.101105 15.551026 -76.585571 106.788818
[spine02]
20 129.756927 0.001550 0.000119 0.458018 -4.034067 -14.345691 129.756927
21 129.756927 0.001550 0.000119 0.445894 -4.035502 -14.164082 129.756927
[spine03]
20 78.613953 0.081538 -4.898997 1.954277 3.802083 17.370049 78.766495
21 78.613953 0.081533 -4.898996 1.947012 3.805809 17.256018 78.766495
[pelvis]
20 169.435242 0.051022 0.000000 -0.066564 -0.178797 15.893980 169.435257
21 169.435242 0.051022 0.000000 -0.065389 -0.179043 15.664335 169.435257
[null_rope03_connect]
20 -1.257226 -2.466202 137.391083 -141.864777 -84.238708 -157.079590 137.418976
21 -1.257226 -2.466202 137.391083 -143.067093 -84.016037 -153.399063 137.418976
[null_rope04_connect]
20 -1.259640 -2.480268 -137.844437 -141.864777 -84.238708 -157.079590 137.872513
21 -1.259640 -2.480268 -137.844437 -143.067093 -84.016037 -153.399063 137.872513
[Rope3_Seg01]
20 0.000010 0.000038 -0.000114 -131.148926 4.203650 -89.539017 0.000121
21 0.000010 0.000038 -0.000114 -130.680481 2.657522 -95.117561 0.000121
[Rope3_Seg02]
20 139.999924 -0.000119 0.000060 0.002842 0.174712 0.778121 139.999924
21 139.999924 -0.000119 0.000060 -0.479768 -3.755726 -1.769047 139.999924
[Rope3_Seg03]
20 139.999924 -0.000119 0.000119 0.039714 0.456339 0.862358 139.999924
21 139.999924 -0.000119 0.000119 -0.327864 -4.255191 -2.322308 139.999924
[Rope3_Seg04]
20 139.999924 0.000119 0.000000 0.018511 0.777958 1.025549 139.999924
21 139.999924 0.000119 0.000000 -0.191321 -4.882689 -2.906154 139.999924
[Rope3_Seg05]
20 139.999924 -0.000238 0.000060 -0.211784 -1.764501 -0.272047 139.999924
21 139.999924 -0.000238 0.000060 0.220750 2.148542 2.711821 139.999924
[Rope3_Seg06]
20 139.999893 -0.000119 -0.000060 0.134098 -1.797974 -0.559345 139.999893
21 139.999893 -0.000119 -0.000060 0.716787 3.533360 3.443443 139.999893
[Rope3_Seg07]
20 139.999771 0.000060 -0.000119 0.378688 -0.798995 -0.164181 139.999771
21 139.999771 0.000060 -0.000119 0.585594 1.250926 1.383090 139.999771
[Rope3_Seg08]
20 139.999985 -0.000060 0.000000 0.457101 -0.502397 -0.099254 139.999985
21 139.999985 -0.000060 0.000000 0.586304 0.793549 0.861364 139.999985
[Rope3_Seg09]
20 90.185997 -0.000179 -0.000060 89.793228 -1.359877 -0.847183 90.185997
21 90.185997 -0.000179 -0.000060 89.793228 -1.359877 -0.847183 90.185997
[R_rear_hand01]
20 103.366196 -6.073594 -10.757982 -177.218140 24.518011 -72.727440 104.101845
21 103.366196 -6.073594 -10.757982 -177.714188 24.565962 -73.910950 104.101845
[R_rear_hand02]
20 100.509819 12.039542 -7.992327 -13.655097 36.621037 70.859306 101.543350
21 100.509819 12.039542 -7.992327 -12.874833 36.868488 72.167213 101.543350
[R_rear_hand03]
20 101.539970 5.215704 5.435467 72.467621 -70.792877 20.476612 101.819031
21 101.539970 5.215704 5.435467 71.484573 -71.816597 21.513800 101.819031
[Rope4_Seg01]
20 0.000010 0.000038 -0.000114 45.516869 10.662998 -119.725418 0.000121
21 0.000010 0.000038 -0.000114 46.855537 11.377466 -113.883438 0.000121
[Rope4_Seg02]
20 139.999985 0.000060 0.000119 0.941056 2.432270 5.519818 139.999985
21 139.999985 0.000060 0.000119 0.499626 0.344170 4.306979 139.999985
[Rope4_Seg03]
20 139.999924 0.000000 -0.000238 0.865582 3.674794 8.052330 139.999924
21 139.999924 0.000000 -0.000238 0.464791 0.516957 6.045355 139.999924
[Rope4_Seg04]
20 139.999985 0.000000 0.000119 -0.384183 7.042572 22.914257 139.999985
21 139.999985 0.000000 0.000119 -0.240646 -2.682454 16.638262 139.999985
[Rope4_Seg05]
20 139.999802 -0.000060 -0.000119 0.568486 5.908860 1.194810 139.999802
21 139.999802 -0.000060 -0.000119 0.399040 7.822956 -0.278408 139.999802
[Rope4_Seg06]
20 139.999924 0.000000 0.000060 4.373072 0.050214 -16.479841 139.999924
21 139.999924 0.000000 0.000060 1.639532 7.027409 -10.328527 139.999924
[Rope4_Seg07]
20 139.999802 0.000000 0.000000 0.875789 0.347742 -3.839320 139.999802
21 139.999802 0.000000 0.000000 0.712467 2.296601 -2.304254 139.999802
[Rope4_Seg08]
20 139.999924 0.000000 0.000119 -1.089831 0.185334 -2.013192 139.999924
21 139.999924 0.000000 0.000119 -1.095637 1.255666 -1.281551 139.999924
[Rope4_Seg09]
20 90.185791 0.000060 0.000060 -135.617828 2.228885 0.850567 90.185791
21 90.185791 0.000060 0.000060 -135.617828 2.228885 0.850567 90.185791
[L_rear_hand01]
20 101.696655 -8.392275 -7.654577 -12.874829 -36.868488 107.832764 102.329041
21 101.696655 -8.392275 -7.654577 -12.874829 -36.868488 107.832764 102.329041
[L_rear_hand02]
20 102.726799 -1.568258 5.773216 71.484581 71.816628 158.486160 102.900848
21 102.726799 -1.568258 5.773216 71.484581 71.816628 158.486160 102.900848
[L_rear_hand03]
20 104.552910 9.721220 -10.420293 -177.714203 -24.565960 -106.089035 105.519653
21 104.552910 9.721220 -10.420293 -177.714203 -24.565960 -106.089035 105.519653
